<svg width="232" height="220" viewBox="0 0 232 220" fill="none" xmlns="http://www.w3.org/2000/svg">
<path d="M186.633 82.84C194.485 52.5293 195.475 7.5604 142.665 2.12706C126.863 0.501372 108.867 15.035 94.5551 13.8172C73.9335 37.8705 79.701 58.3412 86.3334 76.6002" fill="#67524C"/>
<path d="M186.633 82.84C194.485 52.5293 195.475 7.5604 142.665 2.12706C126.863 0.501372 108.867 15.035 94.5551 13.8172C73.9335 37.8705 79.701 58.3412 86.3334 76.6002" stroke="#434245" stroke-width="3.5" stroke-linecap="round" stroke-linejoin="round"/>
<path d="M209.597 215.589C208.629 203.867 215.524 196.249 217.162 188.438ZM217.162 188.438C209.991 178.185 187.094 168.731 169.685 163.689L87.863 146.516C55.8769 165.123 9.6501 162.013 2 217.732H203.525H230.166C227.191 204.411 224.334 198.69 217.162 188.438Z" fill="#8FA1FF"/>
<path d="M209.597 215.589C208.629 203.867 215.524 196.249 217.162 188.438M217.162 188.438C209.991 178.185 187.094 168.731 169.685 163.689L87.863 146.516C55.8769 165.123 9.6501 162.013 2 217.732H203.525H230.166C227.191 204.411 224.334 198.69 217.162 188.438Z" stroke="#434245" stroke-width="3.5" stroke-linecap="round" stroke-linejoin="round"/>
<path d="M107.07 114.389C116.68 140.452 125.061 139.514 143.671 140.346C166.782 141.38 172.922 113.224 177.421 106.061C187.791 102.982 194.165 76.273 180.814 83.5608C180.586 71.5771 180.428 59.4521 179.743 48.3822C162.957 46.1658 147.6 38.8693 130.814 31.0609C123.517 30.4912 115.672 32.5293 108.85 34.8109C106.843 43.7497 107.707 50.3921 110.457 55.5252C104.573 61.7067 101.903 71.8164 100.278 83.2038C96.0944 65.8225 85.7375 74.097 85.4083 81.0914C85.1422 86.7406 90.2189 99.3375 90.5831 99.4103C97.1734 100.728 97.4472 96.3941 99.564 98.9179L96.7069 135.168L122.257 169.624C133.389 190.818 145.899 202.884 156.404 180.144L150.1 175.704C156.419 164.716 154.692 148.763 159.258 135.834" fill="#FBCCB6"/>
<path d="M107.07 114.389C116.68 140.452 125.061 139.514 143.671 140.346C166.782 141.38 172.922 113.224 177.421 106.061C187.791 102.982 194.165 76.273 180.814 83.5608C180.586 71.5771 180.428 59.4521 179.743 48.3822C162.957 46.1658 147.6 38.8693 130.814 31.0609C123.517 30.4912 115.672 32.5293 108.85 34.8109C106.843 43.7497 107.707 50.3921 110.457 55.5252C104.573 61.7067 101.903 71.8164 100.278 83.2038C96.0944 65.8225 85.7375 74.097 85.4083 81.0914C85.1422 86.7406 90.2189 99.3375 90.5831 99.4103C97.1734 100.728 97.4472 96.3941 99.564 98.9179L96.7069 135.168L122.257 169.624C133.389 190.818 145.899 202.884 156.404 180.144L150.1 175.704C156.419 164.716 154.692 148.763 159.258 135.834" stroke="#434245" stroke-width="3.5" stroke-linecap="round" stroke-linejoin="round"/>
<path d="M97.203 127.801C89.5407 137.726 122.701 158.426 135.457 173.204L135.814 179.811C138.101 184.165 140.747 188.429 144.921 192.311C147.318 187.177 149.996 182.213 150.1 175.704C154.388 166.436 155.113 156.575 156.725 146.861C165.672 156.817 174.033 167.043 176.885 179.811L170.814 175.168C160.429 179.166 155.604 186.701 150.278 193.918L154.921 217.732H145.068L140.993 195.704C135.461 190.767 131.179 187.081 126.528 183.025L125.635 176.418C118.384 177.1 115.683 177.562 111.171 181.597C100.565 164.796 67.1953 146.787 97.203 127.801Z" fill="#8FA1FF" stroke="#434245" stroke-width="3.5" stroke-linecap="round" stroke-linejoin="round"/>
<path d="M129.721 76.7526C132.057 76.7526 133.951 74.8588 133.951 72.5226C133.951 70.1864 132.057 68.2925 129.721 68.2925C127.385 68.2925 125.491 70.1864 125.491 72.5226C125.491 74.8588 127.385 76.7526 129.721 76.7526Z" fill="#434245"/>
<path d="M165.266 78.0153C167.602 78.0153 169.496 76.1215 169.496 73.7853C169.496 71.4491 167.602 69.5553 165.266 69.5553C162.93 69.5553 161.036 71.4491 161.036 73.7853C161.036 76.1215 162.93 78.0153 165.266 78.0153Z" fill="#434245"/>
<path d="M118.988 59.9588C128.965 56.8313 135.096 59.7018 141.349 63.3375" stroke="#434245" stroke-width="3.5" stroke-linecap="round" stroke-linejoin="round"/>
<path d="M160.136 64.4751C165.905 61.3455 171.063 60.7625 175.404 63.5823" stroke="#434245" stroke-width="3.5" stroke-linecap="round" stroke-linejoin="round"/>
<path d="M149.511 76.8859C148.782 85.7859 162.361 98.8567 145.635 98.567" stroke="#434245" stroke-width="3.5" stroke-linecap="round" stroke-linejoin="round"/>
<path d="M133.951 111.098C144.165 113.875 150.601 114.728 159.474 111.136" stroke="#434245" stroke-width="3.5" stroke-linecap="round" stroke-linejoin="round"/>
<path d="M31.5336 170.562C49.5903 181.316 65.0505 193.693 61.8515 217.732" stroke="#434245" stroke-width="3.5" stroke-linecap="round" stroke-linejoin="round"/>
<path d="M42.5862 177.769C55.2498 166.067 69.952 164.558 84.58 162.679" stroke="#434245" stroke-width="3.5" stroke-linecap="round" stroke-linejoin="round"/>
<path d="M217.162 188.438C209.67 183.153 189.937 175.211 182.445 174.608" stroke="#434245" stroke-width="3.5" stroke-linecap="round" stroke-linejoin="round"/>
</svg>
